<svg xmlns="http://www.w3.org/2000/svg" style="display: none;">
    <symbol id="add-chat" viewBox="0 0 24 24">
        <path fill="none" stroke="currentColor" d="M12.4996 14.5V8.5M9.49962 11.5H15.4996M12.4996 20C17.194 20 20.9996 16.1944 20.9996 11.5C20.9996 6.80558 17.194 3 12.4996 3C7.8052 3 3.99962 6.80558 3.99962 11.5C3.99962 12.45 4.15547 13.3636 4.443 14.2166C4.55119 14.5376 4.60529 14.6981 4.61505 14.8214C4.62469 14.9432 4.6174 15.0286 4.58728 15.1469C4.55677 15.2668 4.48942 15.3915 4.35472 15.6408L2.71906 18.6684C2.48575 19.1002 2.36909 19.3161 2.3952 19.4828C2.41794 19.6279 2.50337 19.7557 2.6288 19.8322C2.7728 19.9201 3.01692 19.8948 3.50517 19.8444L8.62619 19.315C8.78127 19.299 8.85881 19.291 8.92949 19.2937C8.999 19.2963 9.04807 19.3029 9.11586 19.3185C9.18478 19.3344 9.27145 19.3678 9.44478 19.4345C10.3928 19.7998 11.4228 20 12.4996 20Z" stroke-width="2" stroke-linecap="round" stroke-linejoin="round"/>
    </symbol>
    <symbol id="trend" viewBox="0 0 24 24">
        <path fill="none" stroke="currentColor" d="M4.00045 19.0003L7.75201 13.5807C8.20606 12.9247 9.00649 12.6013 9.78875 12.7578L12.3591 13.272C13.0646 13.4131 13.7915 13.1644 14.2628 12.6207L20.0004 6.00028M13 6L20 6M20 6V13" stroke-width="2" stroke-linecap="round"/>
    </symbol>
    <symbol id="arrow-left" viewBox="0 0 24 24">
        <path fill="none" stroke="currentColor" d="M19 12H5M5 12L12 19M5 12L12 5" stroke-width="2" stroke-linecap="round" stroke-linejoin="round"/>
    </symbol>
    <symbol id="user" viewBox="0 0 24 24">
        <path fill="none" stroke="currentColor" d="M20 21C20 19.6044 20 18.9067 19.8278 18.3389C19.44 17.0605 18.4395 16.06 17.1611 15.6722C16.5933 15.5 15.8956 15.5 14.5 15.5H9.5C8.10444 15.5 7.40665 15.5 6.83886 15.6722C5.56045 16.06 4.56004 17.0605 4.17224 18.3389C4 18.9067 4 19.6044 4 21M16.5 7.5C16.5 9.98528 14.4853 12 12 12C9.51472 12 7.5 9.98528 7.5 7.5C7.5 5.01472 9.51472 3 12 3C14.4853 3 16.5 5.01472 16.5 7.5Z" stroke-width="2" stroke-linecap="round" stroke-linejoin="round"/>
    </symbol>
    <symbol id="check" viewBox="0 0 24 24">
        <path fill="none" stroke="currentColor" d="M20 6L9 17L4 12" stroke-width="2" stroke-linecap="round" stroke-linejoin="round"/>
    </symbol>
    <symbol id="annotation-dots" viewBox="0 0 24 24">
        <path fill="none" stroke="currentColor" d="M7.5 10.5H7.51M12 10.5H12.01M16.5 10.5H16.51M9.9 19.2L11.36 21.1467C11.5771 21.4362 11.6857 21.5809 11.8188 21.6327C11.9353 21.678 12.0647 21.678 12.1812 21.6327C12.3143 21.5809 12.4229 21.4362 12.64 21.1467L14.1 19.2C14.3931 18.8091 14.5397 18.6137 14.7185 18.4645C14.9569 18.2656 15.2383 18.1248 15.5405 18.0535C15.7671 18 16.0114 18 16.5 18C17.8978 18 18.5967 18 19.1481 17.7716C19.8831 17.4672 20.4672 16.8831 20.7716 16.1481C21 15.5967 21 14.8978 21 13.5V7.8C21 6.11984 21 5.27976 20.673 4.63803C20.3854 4.07354 19.9265 3.6146 19.362 3.32698C18.7202 3 17.8802 3 16.2 3H7.8C6.11984 3 5.27976 3 4.63803 3.32698C4.07354 3.6146 3.6146 4.07354 3.32698 4.63803C3 5.27976 3 6.11984 3 7.8V13.5C3 14.8978 3 15.5967 3.22836 16.1481C3.53284 16.8831 4.11687 17.4672 4.85195 17.7716C5.40326 18 6.10218 18 7.5 18C7.98858 18 8.23287 18 8.45951 18.0535C8.76169 18.1248 9.04312 18.2656 9.2815 18.4645C9.46028 18.6137 9.60685 18.8091 9.9 19.2Z" stroke-width="2" stroke-linecap="round" stroke-linejoin="round"/>
    </symbol>
    <symbol id="filter" viewBox="0 0 24 24">
        <path fill="none" stroke="currentColor" d="M3.38589 5.66687C2.62955 4.82155 2.25138 4.39889 2.23712 4.03968C2.22473 3.72764 2.35882 3.42772 2.59963 3.22889C2.87684 3 3.44399 3 4.57828 3H19.4212C20.5555 3 21.1227 3 21.3999 3.22889C21.6407 3.42772 21.7748 3.72764 21.7624 4.03968C21.7481 4.39889 21.3699 4.82155 20.6136 5.66687L14.9074 12.0444C14.7566 12.2129 14.6812 12.2972 14.6275 12.3931C14.5798 12.4781 14.5448 12.5697 14.5236 12.6648C14.4997 12.7721 14.4997 12.8852 14.4997 13.1113V18.4584C14.4997 18.6539 14.4997 18.7517 14.4682 18.8363C14.4403 18.911 14.395 18.9779 14.336 19.0315C14.2692 19.0922 14.1784 19.1285 13.9969 19.2012L10.5969 20.5612C10.2293 20.7082 10.0455 20.7817 9.89802 20.751C9.76901 20.7242 9.6558 20.6476 9.583 20.5377C9.49975 20.4122 9.49975 20.2142 9.49975 19.8184V13.1113C9.49975 12.8852 9.49975 12.7721 9.47587 12.6648C9.45469 12.5697 9.41971 12.4781 9.37204 12.3931C9.31828 12.2972 9.2429 12.2129 9.09213 12.0444L3.38589 5.66687Z" stroke-width="2" stroke-linecap="round" stroke-linejoin="round"/>
    </symbol>
    <symbol id="logo" viewBox="0 0 24 24">
        <path fill="currentColor" d="M20.4128 11.3494L13.0879 7.70542C12.7281 7.52614 12.5007 7.15984 12.5007 6.75895V1.05971C12.5007 0.188061 11.502 -0.30952 10.8021 0.213469L4.425 4.97825C4.15796 5.17799 4 5.49136 4 5.82449V10.981C4 11.3819 4.22738 11.7489 4.58792 11.9274L11.9121 15.5658C12.2726 15.7451 12.5 16.1114 12.5 16.5122V22.9399C12.5 23.8122 13.4995 24.3098 14.1993 23.7861L20.5757 19.0164C20.8427 18.8166 21 18.5033 21 18.1701V12.2952C21 11.8943 20.7726 11.5287 20.4128 11.3494Z"/>
    </symbol>
    <symbol id="chevron-right" viewBox="0 0 24 24">
        <path fill="none" stroke="currentColor" d="M9 18L15 12L9 6" stroke-width="2" stroke-linecap="round" stroke-linejoin="round"/>
    </symbol>
</svg>
