<svg width="69" height="96" viewBox="0 0 69 96" fill="none" xmlns="http://www.w3.org/2000/svg">
<path d="M66.0374 45.3976L36.8431 30.8217C35.409 30.1046 34.5027 28.6394 34.5027 27.0358V4.23884C34.5027 0.752243 30.5221 -1.23808 27.7328 0.853876L2.31596 19.913C1.25163 20.7119 0.62207 21.9654 0.62207 23.298V43.9239C0.62207 45.5275 1.5283 46.9955 2.96529 47.7098L32.1567 62.2631C33.5937 62.9802 34.4999 64.4454 34.4999 66.049V91.7594C34.4999 95.2489 38.4834 97.2392 41.2727 95.1444L66.6867 76.0655C67.751 75.2666 68.3778 74.0131 68.3778 72.6806V49.1806C68.3778 47.5771 67.4715 46.1119 66.0374 45.3948V45.3976Z" fill="url(#paint0_linear_856_6174)"/>
<defs>
<linearGradient id="paint0_linear_856_6174" x1="26.4059" y1="93.8909" x2="42.5911" y2="2.11018" gradientUnits="userSpaceOnUse">
<stop stop-color="#879900"/>
<stop offset="0.6" stop-color="#E2FF00"/>
<stop offset="1" stop-color="#FCFFE5"/>
</linearGradient>
</defs>
</svg>
